<?xml version="1.0" encoding="UTF-8" standalone="no"?>
<!-- Created with Inkscape (http://www.inkscape.org/) -->

<svg
   xmlns:dc="http://purl.org/dc/elements/1.1/"
   xmlns:cc="http://creativecommons.org/ns#"
   xmlns:rdf="http://www.w3.org/1999/02/22-rdf-syntax-ns#"
   xmlns:svg="http://www.w3.org/2000/svg"
   xmlns="http://www.w3.org/2000/svg"
   xmlns:xlink="http://www.w3.org/1999/xlink"
   xmlns:sodipodi="http://sodipodi.sourceforge.net/DTD/sodipodi-0.dtd"
   xmlns:inkscape="http://www.inkscape.org/namespaces/inkscape"
   version="1.1"
   id="svg1491"
   width="257.56482"
   height="257.56482"
   viewBox="0 0 257.56482 257.56482"
   sodipodi:docname="portrait.svg"
   inkscape:version="0.92.4 (5da689c313, 2019-01-14)">
  <metadata
     id="metadata1497">
    <rdf:RDF>
      <cc:Work
         rdf:about="">
        <dc:format>image/svg+xml</dc:format>
        <dc:type
           rdf:resource="http://purl.org/dc/dcmitype/StillImage" />
        <dc:title />
      </cc:Work>
    </rdf:RDF>
  </metadata>
  <defs
     id="defs1495">
    <linearGradient
       inkscape:collect="always"
       id="linearGradient2229">
      <stop
         style="stop-color:#facbac;stop-opacity:1"
         offset="0"
         id="stop2225" />
      <stop
         style="stop-color:#efb692;stop-opacity:1"
         offset="1"
         id="stop2227" />
    </linearGradient>
    <linearGradient
       inkscape:collect="always"
       xlink:href="#linearGradient2229"
       id="linearGradient2231"
       x1="256.24112"
       y1="303.11072"
       x2="257.05286"
       y2="277.13486"
       gradientUnits="userSpaceOnUse" />
  </defs>
  <sodipodi:namedview
     pagecolor="#ffffff"
     bordercolor="#666666"
     borderopacity="1"
     objecttolerance="10"
     gridtolerance="10"
     guidetolerance="10"
     inkscape:pageopacity="0"
     inkscape:pageshadow="2"
     inkscape:window-width="1600"
     inkscape:window-height="838"
     id="namedview1493"
     showgrid="false"
     inkscape:zoom="2.6132813"
     inkscape:cx="104.96459"
     inkscape:cy="108.73422"
     inkscape:window-x="-8"
     inkscape:window-y="-8"
     inkscape:window-maximized="1"
     inkscape:current-layer="layer8" />
  <g
     inkscape:groupmode="layer"
     id="layer8"
     inkscape:label="fond"
     transform="translate(-125.56467,-111.5533)"
     style="display:inline">
    <circle
       style="opacity:1;fill:#ffffff;fill-opacity:1;stroke:#11467f;stroke-width:2.135;stroke-linecap:round;stroke-miterlimit:4;stroke-dasharray:none;stroke-opacity:1"
       id="path2217"
       cx="254.34708"
       cy="240.33571"
       r="127.71469" />
  </g>
  <g
     inkscape:groupmode="layer"
     id="layer5"
     inkscape:label="svg"
     style="opacity:1"
     transform="translate(-125.56467,-111.5533)">
    <path
       style="fill:url(#linearGradient2231);fill-opacity:1;stroke:none;stroke-width:0.37795275;stroke-linecap:butt;stroke-linejoin:miter;stroke-miterlimit:4;stroke-dasharray:none;stroke-opacity:1"
       d="m 239.73692,267.47982 c 0,0 -2.10463,9.75785 -5.35725,14.54111 -3.25261,4.78326 -9.18386,5.73991 -9.18386,5.73991 l 25.06428,50.70254 39.98804,-49.36323 c 0,0 -9.18385,-2.4873 -13.77578,-8.41854 -4.59193,-5.93124 -4.78326,-13.01046 -4.78326,-13.01046 z"
       id="path1547"
       inkscape:connector-curvature="0" />
    <path
       style="display:inline;opacity:1;fill:#11467f;fill-opacity:1;stroke:none;stroke-width:2.13499999;stroke-linecap:round;stroke-miterlimit:4;stroke-dasharray:none;stroke-opacity:1"
       d="m 103.56122,174.54398 c -1.18964,-0.45093 -41.04772,16.97039 -46.40497,23.66696 -4.90454,6.13068 -9.483304,20.27725 -7.433594,30.69922 l 0.01172,0.008 c 3.267168,2.58087 6.658588,5.00042 10.162109,7.25 0.250767,0.15517 0.502071,0.30946 0.753907,0.46289 3.270832,2.07438 6.634334,3.9989 10.080078,5.76758 0.528817,0.26018 1.059429,0.5167 1.591797,0.76953 3.191697,1.58742 6.448455,3.04051 9.761718,4.35547 0.866959,0.32717 1.737453,0.6449 2.611328,0.95312 3.024882,1.13018 6.09154,2.14523 9.19336,3.04297 1.213437,0.32917 2.431669,0.6404 3.654297,0.93359 2.79875,0.72582 5.62134,1.3564 8.46289,1.89063 1.58322,0.27017 3.17139,0.51044 4.76367,0.7207 2.51382,0.37866 5.03838,0.68218 7.57031,0.91016 3.47251,0.31697 6.95655,0.4916 10.44336,0.52344 3.71557,-0.0294 7.42809,-0.22104 11.12696,-0.57422 1.75029,-0.17614 3.49676,-0.38843 5.23828,-0.63672 2.56988,-0.31274 5.12966,-0.70355 7.67578,-1.17188 1.42067,-0.29357 2.83624,-0.61132 4.24609,-0.95312 2.8317,-0.62551 5.64127,-1.34728 8.42383,-2.16406 1.08746,-0.3455 2.17024,-0.70556 3.24805,-1.08008 3.0476,-0.98931 6.05689,-2.09295 9.02148,-3.30859 0.78146,-0.34051 1.5595,-0.68884 2.33399,-1.04493 3.19568,-1.39122 6.33307,-2.91267 9.40429,-4.56054 0.50981,-0.28817 1.01764,-0.57984 1.52344,-0.875 3.28184,-1.8255 6.48156,-3.79486 9.58984,-5.90235 0.25784,-0.18264 0.51501,-0.36623 0.77149,-0.55078 3.27287,-2.25919 6.43843,-4.67002 9.48633,-7.22461 l 0.0254,-0.0215 c -0.60166,-9.49421 -4.04344,-25.40862 -9.29865,-30.51367 -6.69656,-6.50523 -43.48297,-22.43208 -44.41368,-21.92474 -0.93071,0.50735 0.75836,29.73674 -25.41148,30.1513 -26.16984,0.41456 -27.02378,-29.14783 -28.21342,-29.59877 z"
       id="circle2244"
       transform="translate(125.56467,111.5533)"
       inkscape:connector-curvature="0"
       sodipodi:nodetypes="zsccccccccccccccccccccccccccccczzz" />
    <path
       style="fill:#092644;fill-opacity:1;stroke:none;stroke-width:0.37795275;stroke-linecap:butt;stroke-linejoin:miter;stroke-miterlimit:4;stroke-dasharray:none;stroke-opacity:1"
       d="m 237.54775,159.94965 c -5.37704,-4.00103 -34.58969,-12.35813 -30.44047,-19.34661 4.92544,-8.29585 35.10151,16.33071 35.06358,16.39342 z"
       id="path1523"
       inkscape:connector-curvature="0"
       sodipodi:nodetypes="cscc" />
    <path
       style="fill:#092644;fill-opacity:1;stroke:none;stroke-width:0.37795275;stroke-linecap:butt;stroke-linejoin:miter;stroke-miterlimit:4;stroke-dasharray:none;stroke-opacity:1"
       d="m 244.61584,156.79522 c -1.90519,-8.53295 -24.76996,-21.42615 -17.79372,-27.7429 7.81849,-7.07937 24.17271,25.05979 22.67265,26.21225 z"
       id="path1525"
       inkscape:connector-curvature="0"
       sodipodi:nodetypes="cscc" />
    <path
       style="fill:#092644;fill-opacity:1;stroke:none;stroke-width:0.37795275;stroke-linecap:butt;stroke-linejoin:miter;stroke-miterlimit:4;stroke-dasharray:none;stroke-opacity:1"
       d="m 252.26906,155.26457 c 2.69111,-0.25479 -8.06833,-30.52403 3.06128,-30.70852 11.87397,-0.19683 0.45854,30.60067 4.01794,30.99552 z"
       id="path1527"
       inkscape:connector-curvature="0"
       sodipodi:nodetypes="cscc" />
    <path
       style="fill:#092644;fill-opacity:1;stroke:none;stroke-width:0.37795275;stroke-linecap:butt;stroke-linejoin:miter;stroke-miterlimit:4;stroke-dasharray:none;stroke-opacity:1"
       d="m 262.21824,155.4559 c 0,0 14.57291,-33.79625 23.24663,-26.02092 7.1055,6.36954 -17.36297,18.72292 -17.69805,27.64723 z"
       id="path1529"
       inkscape:connector-curvature="0"
       sodipodi:nodetypes="cscc" />
    <path
       style="fill:#092644;fill-opacity:1;stroke:none;stroke-width:0.37795275;stroke-linecap:butt;stroke-linejoin:miter;stroke-miterlimit:4;stroke-dasharray:none;stroke-opacity:1"
       d="m 269.48879,157.75187 c -0.12807,-0.25615 30.86095,-25.45175 35.58745,-17.12407 4.27545,7.53298 -32.82825,18.15053 -31.85651,19.5157 z"
       id="path1531"
       inkscape:connector-curvature="0"
       sodipodi:nodetypes="cscc" />
    <path
       style="fill:#facbac;fill-opacity:1;stroke:none;stroke-width:0.37795275;stroke-linecap:butt;stroke-linejoin:miter;stroke-miterlimit:4;stroke-dasharray:none;stroke-opacity:1"
       d="m 256.27395,278.60183 c 8.86591,0.15379 19.87199,-4.9099 31.56757,-31.5311 16.61573,-37.8203 8.15935,-81.43473 -31.52114,-81.54133 -40.96461,0.70365 -47.89167,52.13293 -32.56272,82.28384 13.02313,25.61554 23.65038,30.6348 32.51629,30.78859 z"
       id="path1504"
       inkscape:connector-curvature="0"
       sodipodi:nodetypes="zscsz" />
    <path
       style="fill:#f9af3b;fill-opacity:1;stroke:none;stroke-width:0.37795275;stroke-linecap:butt;stroke-linejoin:miter;stroke-miterlimit:4;stroke-dasharray:none;stroke-opacity:1"
       d="m 231.34758,165.3845 c 0,0 4.87048,-11.49973 24.0818,-11.36444 19.21132,0.13529 25.56999,11.36444 25.56999,11.36444 z"
       id="path1521"
       inkscape:connector-curvature="0" />
    <path
       style="fill:#0d3662;fill-opacity:1;stroke:none;stroke-width:0.37795275;stroke-linecap:butt;stroke-linejoin:miter;stroke-miterlimit:4;stroke-dasharray:none;stroke-opacity:1"
       d="m 217.14203,231.13592 c 0,0 0.83496,-37.1586 16.39342,-42.57024 15.55846,-5.41164 21.28711,3.33585 21.28711,3.33585 0,0 7.07758,-8.54655 21.41842,-3.54078 14.34084,5.00577 16.664,42.91046 16.664,42.91046 0,0 0.25499,3.14985 2.94064,-0.19542 6.37629,-7.94239 7.88311,-26.98866 5.80125,-32.55323 1.46812,-8.99832 -3.72477,-20.26738 -9.72929,-23.88986 -3.58929,-7.17924 -8.77576,-11.77961 -16.50429,-11.30997 -8.47736,-5.21079 -19.73801,-2.31876 -20.25449,-1.86167 -0.62901,-0.77471 -8.90148,-3.36419 -17.72754,1.32376 -8.94477,1.91637 -13.93168,6.64082 -17.29715,12.17445 -7.25348,5.55153 -11.77573,15.09853 -9.79871,23.68313 -1.98011,6.40712 -2.31779,23.57581 4.35889,31.94756 1.43786,1.80292 1.81932,-0.91201 2.44774,0.54596 z"
       id="path1519"
       inkscape:connector-curvature="0"
       sodipodi:nodetypes="csczcscccccccsc" />
    <path
       style="fill:#092644;fill-opacity:1;stroke:none;stroke-width:0.37795275;stroke-linecap:butt;stroke-linejoin:miter;stroke-miterlimit:4;stroke-dasharray:none;stroke-opacity:1"
       d="m 272.25586,161.78125 c -0.17094,0.68069 -0.93951,3.78797 -0.85352,5.25 0.0957,1.62631 1.14826,4.20959 0.66993,5.74023 -0.47833,1.53064 -5.16602,8.03516 -5.16602,8.03516 0,0 6.88706,-5.35605 7.74805,-6.79102 0.86099,-1.43497 -0.0957,-3.73114 0,-5.45312 0.0822,-1.47988 2.71237,-4.36605 3.48632,-5.1875 -0.87269,-0.0902 -1.77922,-0.1103 -2.72656,-0.0527 -1.01993,-0.62693 -2.08125,-1.13032 -3.1582,-1.54102 z"
       id="path1533"
       inkscape:connector-curvature="0" />
    <path
       style="fill:#092644;fill-opacity:1;stroke:none;stroke-width:0.37795275;stroke-linecap:butt;stroke-linejoin:miter;stroke-miterlimit:4;stroke-dasharray:none;stroke-opacity:1"
       d="m 290.58398,172.21875 c -0.67649,0.72867 -1.98771,2.26299 -2.05859,3.32617 -0.0957,1.43498 0.19125,2.77576 -0.19141,3.73242 -0.38266,0.95665 -2.86914,4.78321 -2.86914,4.78321 0,0 4.01792,-2.29733 4.87891,-3.44532 0.86098,-1.14798 0.38301,-1.72108 0.86133,-2.67773 0.34505,-0.69009 1.73583,-1.53926 2.49414,-1.9668 -0.58309,-0.51074 -1.17565,-0.97254 -1.78125,-1.33789 -0.42131,-0.84269 -0.86714,-1.64646 -1.33399,-2.41406 z"
       id="path1535"
       inkscape:connector-curvature="0" />
    <path
       style="fill:#092644;fill-opacity:1;stroke:none;stroke-width:0.37795275;stroke-linecap:butt;stroke-linejoin:miter;stroke-miterlimit:4;stroke-dasharray:none;stroke-opacity:1"
       d="m 301.89062,194.93945 c -0.40652,1.15478 -1.31503,3.57044 -2.17187,4.71289 -1.14798,1.53064 -4.87891,5.74024 -4.87891,5.74024 0,0 3.82651,-2.39086 4.6875,-2.96485 0.74275,-0.49516 2.07733,-2.12094 2.48243,-2.61914 -0.10611,-0.48033 -0.22525,-0.9162 -0.36329,-1.28515 0.18978,-1.16319 0.26434,-2.36633 0.24414,-3.58399 z"
       id="path1537"
       inkscape:connector-curvature="0" />
    <path
       style="fill:#092644;fill-opacity:1;stroke:none;stroke-width:0.37795275;stroke-linecap:butt;stroke-linejoin:miter;stroke-miterlimit:4;stroke-dasharray:none;stroke-opacity:1"
       d="m 258.26758,160.67969 c -1.7427,0.29192 -2.95343,0.64323 -3.10938,0.78125 -0.11194,-0.13788 -0.53757,-0.33553 -1.09375,-0.53711 0.0535,0.88168 0.21289,3.59837 0.21289,5.15039 0,1.81764 2.29688,9.4707 2.29688,9.4707 0,0 1.14855,-7.55736 1.43555,-9.375 0.26411,-1.67276 0.25936,-4.93553 0.25781,-5.49023 z"
       id="path1539"
       inkscape:connector-curvature="0" />
    <path
       style="fill:#092644;fill-opacity:1;stroke:none;stroke-width:0.37795275;stroke-linecap:butt;stroke-linejoin:miter;stroke-miterlimit:4;stroke-dasharray:none;stroke-opacity:1"
       d="m 239.08789,161.99023 c -0.55374,0.23801 -1.10593,0.50262 -1.65625,0.79493 -1.07707,0.23075 -2.09417,0.5038 -3.06055,0.8125 0.25654,0.3029 3.26172,3.87683 3.26172,5.25195 0,1.43498 -0.57391,3.82685 0.19141,5.54883 0.76532,1.72197 7.26953,5.54687 7.26953,5.54687 0,0 -4.30484,-4.49498 -4.6875,-6.59961 -0.38266,-2.10463 0.47852,-5.26224 0.47852,-6.60156 0,-1.18303 -1.44413,-4.06497 -1.79688,-4.75391 z"
       id="path1541"
       inkscape:connector-curvature="0" />
    <path
       style="fill:#092644;fill-opacity:1;stroke:none;stroke-width:0.37795275;stroke-linecap:butt;stroke-linejoin:miter;stroke-miterlimit:4;stroke-dasharray:none;stroke-opacity:1"
       d="m 221.9043,172.35547 c -0.6372,0.84226 -1.22656,1.71073 -1.76953,2.60351 -0.60811,0.46542 -1.19033,0.96767 -1.75782,1.48633 0.60722,0.21272 2.55355,0.91531 2.80078,1.49219 0.28699,0.66966 -0.38216,1.43425 1.24415,3.06055 1.62629,1.62631 5.16601,3.44531 5.16601,3.44531 0,0 -2.29718,-1.81928 -3.0625,-4.11524 -0.76532,-2.29597 -0.2503,-4.74658 -1.01562,-5.99023 -0.58892,-0.957 -1.26082,-1.64433 -1.60547,-1.98242 z"
       id="path1543"
       inkscape:connector-curvature="0" />
    <path
       style="fill:#092644;fill-opacity:1;stroke:none;stroke-width:0.37795275;stroke-linecap:butt;stroke-linejoin:miter;stroke-miterlimit:4;stroke-dasharray:none;stroke-opacity:1"
       d="m 209.88672,194.50391 c 0.002,1.39038 0.13561,2.77693 0.44922,4.13867 -0.19312,0.62489 -0.3646,1.37797 -0.52149,2.18945 2.26722,2.26331 5.2216,3.33484 7.50391,4.32813 -1.60376,-1.07659 -6.39288,-8.28088 -7.43164,-10.65625 z m 7.43164,10.65625 c 0.12793,0.0859 0.2367,0.13474 0.32031,0.13672 -0.0991,-0.0442 -0.21828,-0.0923 -0.32031,-0.13672 z"
       id="path1545"
       inkscape:connector-curvature="0" />
    <path
       sodipodi:nodetypes="sccscs"
       inkscape:connector-curvature="0"
       id="path1742"
       d="m 215.52545,228.33934 c 2.66794,-0.0963 5.83767,2.57918 6.32107,4.60535 l 1.8796,14.30156 c -2.15871,5.15631 -5.99858,4.59091 -9.93659,-5.43186 -0.90563,-2.30495 -2.33067,-4.71819 -2.01395,-8.28869 0.33327,-3.75725 1.92444,-5.12051 3.74987,-5.18636 z"
       style="display:inline;opacity:1;fill:#facbac;fill-opacity:1;stroke:none;stroke-width:0.41000009;stroke-linecap:butt;stroke-linejoin:miter;stroke-miterlimit:4;stroke-dasharray:none;stroke-opacity:1" />
    <circle
       style="opacity:1;fill:#ded0da;fill-opacity:1;stroke:#0b2d52;stroke-width:1.90488183;stroke-linecap:round;stroke-miterlimit:4;stroke-dasharray:none;stroke-opacity:1"
       id="path2168"
       cx="237.72795"
       cy="222.8909"
       r="13.478514" />
    <circle
       r="13.478514"
       cy="222.8909"
       cx="271.72797"
       id="circle2185"
       style="opacity:1;fill:#ded0da;fill-opacity:1;stroke:#0b2d52;stroke-width:1.90488183;stroke-linecap:round;stroke-miterlimit:4;stroke-dasharray:none;stroke-opacity:1" />
    <path
       style="fill:none;stroke:#0b2d52;stroke-width:2.13543296;stroke-linecap:butt;stroke-linejoin:miter;stroke-miterlimit:4;stroke-dasharray:none;stroke-opacity:1"
       d="m 251.79073,222.31689 6.8879,0.0956"
       id="path2187"
       inkscape:connector-curvature="0"
       sodipodi:nodetypes="cc" />
    <path
       style="display:inline;opacity:1;fill:#facbac;fill-opacity:1;stroke:none;stroke-width:0.41000009;stroke-linecap:butt;stroke-linejoin:miter;stroke-miterlimit:4;stroke-dasharray:none;stroke-opacity:1"
       d="m 295.93119,228.33934 c -2.66794,-0.0963 -5.83767,2.57918 -6.32107,4.60535 l -1.8796,14.30156 c 2.15871,5.15631 5.99858,4.59091 9.93659,-5.43186 0.90563,-2.30495 2.33067,-4.71819 2.01395,-8.28869 -0.33327,-3.75725 -1.92444,-5.12051 -3.74987,-5.18636 z"
       id="path1517-7"
       inkscape:connector-curvature="0"
       sodipodi:nodetypes="sccscs" />
    <circle
       style="display:inline;opacity:1;fill:#0d3662;fill-opacity:1;stroke:none;stroke-width:0.5135408;stroke-linecap:round;stroke-miterlimit:4;stroke-dasharray:none;stroke-opacity:1"
       id="path881-4"
       cx="291.1369"
       cy="247.67969"
       r="1.8197818" />
  </g>
</svg>
