<?xml version="1.0" encoding="UTF-8" standalone="no"?>
<!-- Created with Inkscape (http://www.inkscape.org/) -->

<svg
   xmlns:dc="http://purl.org/dc/elements/1.1/"
   xmlns:cc="http://creativecommons.org/ns#"
   xmlns:rdf="http://www.w3.org/1999/02/22-rdf-syntax-ns#"
   xmlns:svg="http://www.w3.org/2000/svg"
   xmlns="http://www.w3.org/2000/svg"
   xmlns:xlink="http://www.w3.org/1999/xlink"
   xmlns:sodipodi="http://sodipodi.sourceforge.net/DTD/sodipodi-0.dtd"
   xmlns:inkscape="http://www.inkscape.org/namespaces/inkscape"
   version="1.1"
   id="svg1491"
   width="257.56482"
   height="257.56482"
   viewBox="0 0 257.56482 257.56482"
   sodipodi:docname="degree.svg"
   inkscape:version="0.92.4 (5da689c313, 2019-01-14)">
  <metadata
     id="metadata1497">
    <rdf:RDF>
      <cc:Work
         rdf:about="">
        <dc:format>image/svg+xml</dc:format>
        <dc:type
           rdf:resource="http://purl.org/dc/dcmitype/StillImage" />
        <dc:title />
      </cc:Work>
    </rdf:RDF>
  </metadata>
  <defs
     id="defs1495">
    <linearGradient
       inkscape:collect="always"
       id="linearGradient2957">
      <stop
         style="stop-color:#1b70ca;stop-opacity:1"
         offset="0"
         id="stop2953" />
      <stop
         style="stop-color:#175fad;stop-opacity:1"
         offset="1"
         id="stop2955" />
    </linearGradient>
    <linearGradient
       inkscape:collect="always"
       id="linearGradient2949">
      <stop
         style="stop-color:#15569d;stop-opacity:1;"
         offset="0"
         id="stop2945" />
      <stop
         style="stop-color:#0c325b;stop-opacity:1"
         offset="1"
         id="stop2947" />
    </linearGradient>
    <linearGradient
       inkscape:collect="always"
       id="linearGradient2229">
      <stop
         style="stop-color:#facbac;stop-opacity:1"
         offset="0"
         id="stop2225" />
      <stop
         style="stop-color:#efb692;stop-opacity:1"
         offset="1"
         id="stop2227" />
    </linearGradient>
    <linearGradient
       inkscape:collect="always"
       xlink:href="#linearGradient2229"
       id="linearGradient2231"
       x1="256.24112"
       y1="303.11072"
       x2="257.05286"
       y2="277.13486"
       gradientUnits="userSpaceOnUse" />
    <linearGradient
       inkscape:collect="always"
       xlink:href="#linearGradient2949"
       id="linearGradient2951"
       x1="129.72197"
       y1="7.8787212"
       x2="129.9133"
       y2="59.729244"
       gradientUnits="userSpaceOnUse" />
    <linearGradient
       inkscape:collect="always"
       xlink:href="#linearGradient2957"
       id="linearGradient2959"
       x1="257.00861"
       y1="182.95369"
       x2="257.00861"
       y2="148.51424"
       gradientUnits="userSpaceOnUse" />
  </defs>
  <sodipodi:namedview
     pagecolor="#ffffff"
     bordercolor="#666666"
     borderopacity="1"
     objecttolerance="10"
     gridtolerance="10"
     guidetolerance="10"
     inkscape:pageopacity="0"
     inkscape:pageshadow="2"
     inkscape:window-width="1600"
     inkscape:window-height="838"
     id="namedview1493"
     showgrid="false"
     inkscape:zoom="2"
     inkscape:cx="8.336472"
     inkscape:cy="123.49034"
     inkscape:window-x="-8"
     inkscape:window-y="-8"
     inkscape:window-maximized="1"
     inkscape:current-layer="layer5" />
  <g
     inkscape:groupmode="layer"
     id="layer8"
     inkscape:label="fond"
     transform="translate(-125.56467,-111.5533)"
     style="display:inline" />
  <g
     inkscape:groupmode="layer"
     id="layer5"
     inkscape:label="svg"
     style="opacity:1"
     transform="translate(-125.56467,-111.5533)">
    <path
       style="display:inline;opacity:1;fill:#11467f;fill-opacity:1;stroke:none;stroke-width:2.13499999;stroke-linecap:round;stroke-miterlimit:4;stroke-dasharray:none;stroke-opacity:1"
       d="M 103.56055 174.54492 C 102.68973 174.21484 81.134531 183.45428 67.523438 191.06055 C 64.287099 192.9168 61.699876 194.61002 60.355469 195.91602 C 54.950301 205.56843 50.909766 229.90311 50.423828 256.4375 L 130.97656 256.67969 L 211.53125 256.4375 C 211.04531 229.90311 207.00478 205.56843 201.59961 195.91602 C 200.24883 194.60383 197.64094 192.89988 194.38281 191.0332 C 180.76904 183.432 159.26238 174.21523 158.39258 174.54492 C 157.20294 174.99586 132.14407 234.05305 131.6582 234.03125 C 131.6582 234.03125 131.06359 232.67407 130.97656 232.47461 C 130.88961 232.67389 130.29688 234.03125 130.29688 234.03125 C 129.811 234.05305 104.75019 174.99586 103.56055 174.54492 z "
       transform="translate(125.56467,111.5533)"
       id="path2989" />
    <path
       style="fill:url(#linearGradient2231);fill-opacity:1;stroke:none;stroke-width:0.37795275;stroke-linecap:butt;stroke-linejoin:miter;stroke-miterlimit:4;stroke-dasharray:none;stroke-opacity:1"
       d="m 239.73692,267.47982 c 0,0 -2.10463,9.75785 -5.35725,14.54111 -3.25261,4.78326 -9.18386,5.73991 -9.18386,5.73991 l 30.66482,57.82365 34.3875,-56.48434 c 0,0 -9.18385,-2.4873 -13.77578,-8.41854 -4.59193,-5.93124 -4.78326,-13.01046 -4.78326,-13.01046 z"
       id="path1547"
       inkscape:connector-curvature="0"
       sodipodi:nodetypes="cccccscc" />
    <path
       style="fill:#c1c1c1;stroke:none;stroke-width:1px;stroke-linecap:butt;stroke-linejoin:miter;stroke-opacity:1;fill-opacity:1"
       d="m 255.68967,349.99312 c 0,0 -26.375,-53.375 -24.5,-52.875 1.875,0.5 50.875,0.125 50.875,0.125 z"
       id="path2967"
       inkscape:connector-curvature="0" />
    <path
       style="fill:#092644;fill-opacity:1;stroke:none;stroke-width:0.37795275;stroke-linecap:butt;stroke-linejoin:miter;stroke-miterlimit:4;stroke-dasharray:none;stroke-opacity:1"
       d="m 237.54775,159.94965 c -5.37704,-4.00103 -34.58969,-12.35813 -30.44047,-19.34661 4.92544,-8.29585 35.10151,16.33071 35.06358,16.39342 z"
       id="path1523"
       inkscape:connector-curvature="0"
       sodipodi:nodetypes="cscc" />
    <path
       style="fill:#092644;fill-opacity:1;stroke:none;stroke-width:0.37795275;stroke-linecap:butt;stroke-linejoin:miter;stroke-miterlimit:4;stroke-dasharray:none;stroke-opacity:1"
       d="m 244.61584,156.79522 c -1.90519,-8.53295 -24.76996,-21.42615 -17.79372,-27.7429 7.81849,-7.07937 24.17271,25.05979 22.67265,26.21225 z"
       id="path1525"
       inkscape:connector-curvature="0"
       sodipodi:nodetypes="cscc" />
    <path
       style="fill:#092644;fill-opacity:1;stroke:none;stroke-width:0.37795275;stroke-linecap:butt;stroke-linejoin:miter;stroke-miterlimit:4;stroke-dasharray:none;stroke-opacity:1"
       d="m 252.26906,155.26457 c 2.69111,-0.25479 -8.06833,-30.52403 3.06128,-30.70852 11.87397,-0.19683 0.45854,30.60067 4.01794,30.99552 z"
       id="path1527"
       inkscape:connector-curvature="0"
       sodipodi:nodetypes="cscc" />
    <path
       style="fill:#092644;fill-opacity:1;stroke:none;stroke-width:0.37795275;stroke-linecap:butt;stroke-linejoin:miter;stroke-miterlimit:4;stroke-dasharray:none;stroke-opacity:1"
       d="m 262.21824,155.4559 c 0,0 14.57291,-33.79625 23.24663,-26.02092 7.1055,6.36954 -17.36297,18.72292 -17.69805,27.64723 z"
       id="path1529"
       inkscape:connector-curvature="0"
       sodipodi:nodetypes="cscc" />
    <path
       style="fill:#092644;fill-opacity:1;stroke:none;stroke-width:0.37795275;stroke-linecap:butt;stroke-linejoin:miter;stroke-miterlimit:4;stroke-dasharray:none;stroke-opacity:1"
       d="m 269.48879,157.75187 c -0.12807,-0.25615 30.86095,-25.45175 35.58745,-17.12407 4.27545,7.53298 -32.82825,18.15053 -31.85651,19.5157 z"
       id="path1531"
       inkscape:connector-curvature="0"
       sodipodi:nodetypes="cscc" />
    <path
       style="opacity:1;fill:url(#linearGradient2951);fill-opacity:1;stroke:none;stroke-width:0.38325822;stroke-linecap:round;stroke-miterlimit:4;stroke-dasharray:none;stroke-opacity:1"
       d="M 128.51019,5.3771556 52.927734,34.609375 c -4.16375,1.618742 -4.188052,3.213501 0.07617,4.912109 l 37.272007,14.414432 76.441879,1.335219 40.72557,-15.749651 c 4.26888,-1.700463 4.23986,-3.297406 0.0625,-4.917968 l -0.0176,-0.0078 L 132.13932,5.4560707 C 131.13581,5.024894 129.47443,5.014775 128.51019,5.3771556 Z"
       transform="translate(125.56467,111.5533)"
       id="rect2921"
       inkscape:connector-curvature="0"
       sodipodi:nodetypes="cccccccccc" />
    <path
       style="fill:#facbac;fill-opacity:1;stroke:none;stroke-width:0.37795275;stroke-linecap:butt;stroke-linejoin:miter;stroke-miterlimit:4;stroke-dasharray:none;stroke-opacity:1"
       d="m 256.27395,278.60183 c 8.86591,0.15379 19.87199,-4.9099 31.56757,-31.5311 16.61573,-37.8203 8.15935,-81.43473 -31.52114,-81.54133 -40.96461,0.70365 -47.89167,52.13293 -32.56272,82.28384 13.02313,25.61554 23.65038,30.6348 32.51629,30.78859 z"
       id="path1504"
       inkscape:connector-curvature="0"
       sodipodi:nodetypes="zscsz" />
    <path
       style="fill:#f9af3b;fill-opacity:1;stroke:none;stroke-width:0.37795275;stroke-linecap:butt;stroke-linejoin:miter;stroke-miterlimit:4;stroke-dasharray:none;stroke-opacity:1"
       d="m 231.34758,165.3845 c 0,0 4.87048,-11.49973 24.0818,-11.36444 19.21132,0.13529 25.56999,11.36444 25.56999,11.36444 z"
       id="path1521"
       inkscape:connector-curvature="0" />
    <path
       style="fill:#0d3662;fill-opacity:1;stroke:none;stroke-width:0.37795275;stroke-linecap:butt;stroke-linejoin:miter;stroke-miterlimit:4;stroke-dasharray:none;stroke-opacity:1"
       d="m 217.14203,231.13592 c 0,0 0.83496,-37.1586 16.39342,-42.57024 15.55846,-5.41164 21.28711,3.33585 21.28711,3.33585 0,0 7.07758,-8.54655 21.41842,-3.54078 14.34084,5.00577 16.664,42.91046 16.664,42.91046 0,0 0.25499,3.14985 2.94064,-0.19542 6.37629,-7.94239 7.88311,-26.98866 5.80125,-32.55323 1.46812,-8.99832 -3.72477,-20.26738 -9.72929,-23.88986 -3.58929,-7.17924 -8.77576,-11.77961 -16.50429,-11.30997 -8.47736,-5.21079 -19.73801,-2.31876 -20.25449,-1.86167 -0.62901,-0.77471 -8.90148,-3.36419 -17.72754,1.32376 -8.94477,1.91637 -13.93168,6.64082 -17.29715,12.17445 -7.25348,5.55153 -11.77573,15.09853 -9.79871,23.68313 -1.98011,6.40712 -2.31779,23.57581 4.35889,31.94756 1.43786,1.80292 1.81932,-0.91201 2.44774,0.54596 z"
       id="path1519"
       inkscape:connector-curvature="0"
       sodipodi:nodetypes="csczcscccccccsc" />
    <path
       sodipodi:nodetypes="sccscs"
       inkscape:connector-curvature="0"
       id="path2438"
       d="m 215.52545,228.33934 c 2.66794,-0.0963 5.83767,2.57918 6.32107,4.60535 l 1.8796,14.30156 c -2.15871,5.15631 -5.99858,4.59091 -9.93659,-5.43186 -0.90563,-2.30495 -2.33067,-4.71819 -2.01395,-8.28869 0.33327,-3.75725 1.92444,-5.12051 3.74987,-5.18636 z"
       style="display:inline;opacity:1;fill:#facbac;fill-opacity:1;stroke:none;stroke-width:0.41000009;stroke-linecap:butt;stroke-linejoin:miter;stroke-miterlimit:4;stroke-dasharray:none;stroke-opacity:1" />
    <path
       style="display:inline;opacity:1;fill:#facbac;fill-opacity:1;stroke:none;stroke-width:0.41000009;stroke-linecap:butt;stroke-linejoin:miter;stroke-miterlimit:4;stroke-dasharray:none;stroke-opacity:1"
       d="m 295.93119,228.33934 c -2.66794,-0.0963 -5.83767,2.57918 -6.32107,4.60535 l -1.8796,14.30156 c 2.15871,5.15631 5.99858,4.59091 9.93659,-5.43186 0.90563,-2.30495 2.33067,-4.71819 2.01395,-8.28869 -0.33327,-3.75725 -1.92444,-5.12051 -3.74987,-5.18636 z"
       id="path1517-7"
       inkscape:connector-curvature="0"
       sodipodi:nodetypes="sccscs" />
    <circle
       style="display:inline;opacity:1;fill:#0d3662;fill-opacity:1;stroke:none;stroke-width:0.5135408;stroke-linecap:round;stroke-miterlimit:4;stroke-dasharray:none;stroke-opacity:1"
       id="path881-4"
       cx="291.1369"
       cy="247.67969"
       r="1.8197818" />
    <path
       style="fill:#092644;fill-opacity:1;stroke:none;stroke-width:0.37795275;stroke-linecap:butt;stroke-linejoin:miter;stroke-miterlimit:4;stroke-dasharray:none;stroke-opacity:1"
       d="m 272.25586,161.78125 c -0.17094,0.68069 -0.93951,3.78797 -0.85352,5.25 0.0957,1.62631 1.14826,4.20959 0.66993,5.74023 -0.47833,1.53064 -5.16602,8.03516 -5.16602,8.03516 0,0 6.88706,-5.35605 7.74805,-6.79102 0.86099,-1.43497 -0.0957,-3.73114 0,-5.45312 0.0822,-1.47988 2.71237,-4.36605 3.48632,-5.1875 -0.87269,-0.0902 -1.77922,-0.1103 -2.72656,-0.0527 -1.01993,-0.62693 -2.08125,-1.13032 -3.1582,-1.54102 z"
       id="path1533"
       inkscape:connector-curvature="0" />
    <path
       style="fill:#092644;fill-opacity:1;stroke:none;stroke-width:0.37795275;stroke-linecap:butt;stroke-linejoin:miter;stroke-miterlimit:4;stroke-dasharray:none;stroke-opacity:1"
       d="m 290.58398,172.21875 c -0.67649,0.72867 -1.98771,2.26299 -2.05859,3.32617 -0.0957,1.43498 0.19125,2.77576 -0.19141,3.73242 -0.38266,0.95665 -2.86914,4.78321 -2.86914,4.78321 0,0 4.01792,-2.29733 4.87891,-3.44532 0.86098,-1.14798 0.38301,-1.72108 0.86133,-2.67773 0.34505,-0.69009 1.73583,-1.53926 2.49414,-1.9668 -0.58309,-0.51074 -1.17565,-0.97254 -1.78125,-1.33789 -0.42131,-0.84269 -0.86714,-1.64646 -1.33399,-2.41406 z"
       id="path1535"
       inkscape:connector-curvature="0" />
    <path
       style="fill:#092644;fill-opacity:1;stroke:none;stroke-width:0.37795275;stroke-linecap:butt;stroke-linejoin:miter;stroke-miterlimit:4;stroke-dasharray:none;stroke-opacity:1"
       d="m 301.89062,194.93945 c -0.40652,1.15478 -1.31503,3.57044 -2.17187,4.71289 -1.14798,1.53064 -4.87891,5.74024 -4.87891,5.74024 0,0 3.82651,-2.39086 4.6875,-2.96485 0.74275,-0.49516 2.07733,-2.12094 2.48243,-2.61914 -0.10611,-0.48033 -0.22525,-0.9162 -0.36329,-1.28515 0.18978,-1.16319 0.26434,-2.36633 0.24414,-3.58399 z"
       id="path1537"
       inkscape:connector-curvature="0" />
    <path
       style="fill:#092644;fill-opacity:1;stroke:none;stroke-width:0.37795275;stroke-linecap:butt;stroke-linejoin:miter;stroke-miterlimit:4;stroke-dasharray:none;stroke-opacity:1"
       d="m 258.26758,160.67969 c -1.7427,0.29192 -2.95343,0.64323 -3.10938,0.78125 -0.11194,-0.13788 -0.53757,-0.33553 -1.09375,-0.53711 0.0535,0.88168 0.21289,3.59837 0.21289,5.15039 0,1.81764 2.29688,9.4707 2.29688,9.4707 0,0 1.14855,-7.55736 1.43555,-9.375 0.26411,-1.67276 0.25936,-4.93553 0.25781,-5.49023 z"
       id="path1539"
       inkscape:connector-curvature="0" />
    <path
       style="fill:#092644;fill-opacity:1;stroke:none;stroke-width:0.37795275;stroke-linecap:butt;stroke-linejoin:miter;stroke-miterlimit:4;stroke-dasharray:none;stroke-opacity:1"
       d="m 239.08789,161.99023 c -0.55374,0.23801 -1.10593,0.50262 -1.65625,0.79493 -1.07707,0.23075 -2.09417,0.5038 -3.06055,0.8125 0.25654,0.3029 3.26172,3.87683 3.26172,5.25195 0,1.43498 -0.57391,3.82685 0.19141,5.54883 0.76532,1.72197 7.26953,5.54687 7.26953,5.54687 0,0 -4.30484,-4.49498 -4.6875,-6.59961 -0.38266,-2.10463 0.47852,-5.26224 0.47852,-6.60156 0,-1.18303 -1.44413,-4.06497 -1.79688,-4.75391 z"
       id="path1541"
       inkscape:connector-curvature="0" />
    <path
       style="fill:#092644;fill-opacity:1;stroke:none;stroke-width:0.37795275;stroke-linecap:butt;stroke-linejoin:miter;stroke-miterlimit:4;stroke-dasharray:none;stroke-opacity:1"
       d="m 221.9043,172.35547 c -0.6372,0.84226 -1.22656,1.71073 -1.76953,2.60351 -0.60811,0.46542 -1.19033,0.96767 -1.75782,1.48633 0.60722,0.21272 2.55355,0.91531 2.80078,1.49219 0.28699,0.66966 -0.38216,1.43425 1.24415,3.06055 1.62629,1.62631 5.16601,3.44531 5.16601,3.44531 0,0 -2.29718,-1.81928 -3.0625,-4.11524 -0.76532,-2.29597 -0.2503,-4.74658 -1.01562,-5.99023 -0.58892,-0.957 -1.26082,-1.64433 -1.60547,-1.98242 z"
       id="path1543"
       inkscape:connector-curvature="0" />
    <path
       style="fill:#092644;fill-opacity:1;stroke:none;stroke-width:0.37795275;stroke-linecap:butt;stroke-linejoin:miter;stroke-miterlimit:4;stroke-dasharray:none;stroke-opacity:1"
       d="m 209.88672,194.50391 c 0.002,1.39038 0.13561,2.77693 0.44922,4.13867 -0.19312,0.62489 -0.3646,1.37797 -0.52149,2.18945 2.26722,2.26331 5.2216,3.33484 7.50391,4.32813 -1.60376,-1.07659 -6.39288,-8.28088 -7.43164,-10.65625 z m 7.43164,10.65625 c 0.12793,0.0859 0.2367,0.13474 0.32031,0.13672 -0.0991,-0.0442 -0.21828,-0.0923 -0.32031,-0.13672 z"
       id="path1545"
       inkscape:connector-curvature="0" />
    <circle
       style="opacity:1;fill:#ded0da;fill-opacity:1;stroke:#0b2d52;stroke-width:1.90488183;stroke-linecap:round;stroke-miterlimit:4;stroke-dasharray:none;stroke-opacity:1"
       id="path2168"
       cx="237.72795"
       cy="222.8909"
       r="13.478514" />
    <circle
       r="13.478514"
       cy="222.8909"
       cx="271.72797"
       id="circle2185"
       style="opacity:1;fill:#ded0da;fill-opacity:1;stroke:#0b2d52;stroke-width:1.90488183;stroke-linecap:round;stroke-miterlimit:4;stroke-dasharray:none;stroke-opacity:1" />
    <path
       style="fill:none;stroke:#0b2d52;stroke-width:2.13543296;stroke-linecap:butt;stroke-linejoin:miter;stroke-miterlimit:4;stroke-dasharray:none;stroke-opacity:1"
       d="m 251.79073,222.31689 6.8879,0.0956"
       id="path2187"
       inkscape:connector-curvature="0"
       sodipodi:nodetypes="cc" />
    <path
       style="opacity:1;fill:url(#linearGradient2959);fill-opacity:1;stroke:none;stroke-width:0.38645786;stroke-linecap:round;stroke-miterlimit:4;stroke-dasharray:none;stroke-opacity:1"
       d="m 255.91724,144.64931 c -13.56423,0.0512 -26.7548,1.94298 -39.65619,5.26994 -2.87746,0.74352 -4.4813,1.04877 -4.51572,4.71346 v 31.02996 c 14.31653,-4.93857 29.04689,-7.26325 44.17191,-7.10342 15.1253,-0.15991 29.85513,2.16477 44.17192,7.10342 v -31.02996 c -0.0344,-3.66469 -1.63634,-3.96994 -4.51381,-4.71346 -12.90139,-3.32696 -26.09388,-5.21864 -39.65811,-5.26994 z"
       id="rect2918"
       inkscape:connector-curvature="0" />
    <path
       style="opacity:1;fill:#593686;fill-opacity:1;stroke:none;stroke-width:0.37795275;stroke-linecap:round;stroke-miterlimit:4;stroke-dasharray:none;stroke-opacity:1"
       d="M 187.91919 47.07138 L 187.91919 27.028455 "
       id="path2937"
       transform="translate(125.56467,111.5533)" />
    <path
       style="opacity:1;fill:#1d76d7;fill-opacity:1;stroke:none;stroke-width:0.3864961;stroke-linecap:round;stroke-miterlimit:4;stroke-dasharray:none;stroke-opacity:1"
       d="m 316.80049,140.07114 -1e-5,47.23746 h -3.31662 v -48.72685"
       id="path2935"
       inkscape:connector-curvature="0"
       sodipodi:nodetypes="cccc" />
    <path
       style="opacity:1;fill:#593686;fill-opacity:1;stroke:none;stroke-width:0.37795275;stroke-linecap:round;stroke-miterlimit:4;stroke-dasharray:none;stroke-opacity:1"
       d="M 192.38379 28.753062 L 192.3838 45.344822 "
       id="rect2930"
       transform="translate(125.56467,111.5533)" />
    <path
       style="fill:#1d76d7;stroke:none;stroke-width:1px;stroke-linecap:butt;stroke-linejoin:miter;stroke-opacity:1;fill-opacity:1"
       d="m 314.69471,188.8371 c 0,0 -5.16591,6.69656 -3.73094,8.9447 1.43498,2.24813 5.69208,3.34828 7.31839,0.76532 1.62631,-2.58296 -2.53513,-9.85352 -2.53513,-9.85352 z"
       id="path2943"
       inkscape:connector-curvature="0" />
    <circle
       style="opacity:1;fill:#0d3662;fill-opacity:1;stroke:none;stroke-width:0.37795275;stroke-linecap:round;stroke-miterlimit:4;stroke-dasharray:none;stroke-opacity:1"
       id="path2941"
       cx="315.15564"
       cy="188.40662"
       r="2.7742901" />
    <path
       style="fill:#11467f;fill-opacity:1;stroke:none;stroke-width:1px;stroke-linecap:butt;stroke-linejoin:miter;stroke-opacity:1"
       d="M 130.36328 185.91016 C 128.40186 185.96792 127.15477 186.01418 125.81836 186.06836 C 125.58159 186.65591 123.72656 193.39453 123.72656 193.39453 L 129.14844 197.80273 L 121.36719 227.49414 C 121.41385 227.56097 128.24446 237.34248 130.36328 240.05273 C 132.48143 237.34353 139.31466 227.56097 139.36133 227.49414 L 131.58008 197.80273 L 137.00195 193.39453 C 137.00195 193.39453 135.14692 186.65591 134.91016 186.06836 C 133.57326 186.01416 132.32526 185.96791 130.36328 185.91016 z "
       transform="translate(125.56467,111.5533)"
       id="path2969" />
    <g
       id="g2983"
       style="fill:#f5fff5;fill-opacity:1">
      <g
         id="g2987"
         transform="matrix(1,0,0,0.94758404,0,14.970582)">
        <path
           style="fill:#f5fff5;fill-opacity:1;stroke:none;stroke-width:1px;stroke-linecap:butt;stroke-linejoin:miter;stroke-opacity:1"
           d="m 229.12589,286.09728 26.35148,11.5872 -9.24041,14.90725 -19.74522,-6.38392 z"
           id="path2977"
           inkscape:connector-curvature="0" />
        <path
           sodipodi:nodetypes="ccccc"
           inkscape:connector-curvature="0"
           id="path2979"
           d="m 282.71273,285.61114 -27.23536,12.07334 9.24041,14.90725 19.74522,-6.38392 z"
           style="fill:#f5fff5;fill-opacity:1;stroke:none;stroke-width:1px;stroke-linecap:butt;stroke-linejoin:miter;stroke-opacity:1" />
      </g>
    </g>
    <path
       style="fill:#0b3056;fill-opacity:1;stroke:none;stroke-width:1px;stroke-linecap:butt;stroke-linejoin:miter;stroke-opacity:1"
       d="m 229.12589,286.09728 26.73474,67.42471 c 0,0 -32.33482,-30.13182 -31.95216,-34.53242 0.38266,-4.4006 6.36173,-7.94021 6.3139,-8.60987 -0.0511,-0.71566 -11.10181,-4.22665 -11.28849,-4.97458 -0.52924,-2.1204 1.36704,-20.00059 10.19201,-19.30784 z"
       id="path2961"
       inkscape:connector-curvature="0"
       sodipodi:nodetypes="ccsssc" />
    <path
       sodipodi:nodetypes="ccsssc"
       inkscape:connector-curvature="0"
       id="path2963"
       d="m 282.71273,285.61114 -26.8521,67.91085 c 0,0 32.33482,-30.13182 31.95216,-34.53242 -0.38266,-4.4006 -6.36173,-7.94021 -6.3139,-8.60987 0.0511,-0.71566 11.10181,-4.22665 11.28849,-4.97458 0.52924,-2.1204 -1.24968,-20.48673 -10.07465,-19.79398 z"
       style="fill:#0b3056;fill-opacity:1;stroke:none;stroke-width:1px;stroke-linecap:butt;stroke-linejoin:miter;stroke-opacity:1" />
  </g>
</svg>
