<svg xmlns="http://www.w3.org/2000/svg" xmlns:xlink="http://www.w3.org/1999/xlink" width="257.565" height="257.565"><defs><linearGradient id="a"><stop offset="0" stop-color="#facbac"/><stop offset="1" stop-color="#efb692"/></linearGradient><linearGradient xlink:href="#a" id="b" x1="256.241" y1="303.111" x2="257.053" y2="277.135" gradientUnits="userSpaceOnUse"/></defs><circle cx="254.347" cy="240.336" r="127.715" fill="#fff" stroke="#11467f" stroke-width="2.135" stroke-linecap="round" transform="translate(-125.565 -111.553)"/><g transform="translate(-125.565 -111.553)"><path d="M239.737 267.48s-2.105 9.758-5.357 14.54c-3.253 4.784-9.184 5.74-9.184 5.74l25.064 50.703 39.988-49.363s-9.184-2.487-13.776-8.418c-4.592-5.932-4.783-13.01-4.783-13.01z" fill="url(#b)"/><path d="M229.126 286.097c-1.19-.45-41.048 16.97-46.405 23.667-4.905 6.13-9.483 20.277-7.434 30.7l.012.007c3.267 2.581 6.659 5 10.162 7.25.25.156.502.31.754.463a127.713 127.713 0 0010.08 5.768c.529.26 1.06.517 1.592.77a127.715 127.715 0 009.762 4.355c.867.327 1.737.645 2.611.953a127.717 127.717 0 009.193 3.043c1.214.33 2.432.64 3.655.934a127.92 127.92 0 008.463 1.89c1.583.27 3.17.51 4.763.72 2.514.38 5.039.683 7.57.911 3.473.317 6.957.492 10.444.524 3.715-.03 7.428-.221 11.127-.575 1.75-.176 3.497-.388 5.238-.636 2.57-.313 5.13-.704 7.676-1.172a127.72 127.72 0 004.246-.953 127.718 127.718 0 008.424-2.164c1.087-.346 2.17-.706 3.248-1.08 3.047-.99 6.057-2.093 9.021-3.31.782-.34 1.56-.688 2.334-1.044a127.713 127.713 0 009.405-4.56c.51-.289 1.017-.58 1.523-.876a127.712 127.712 0 009.59-5.902c.258-.183.515-.366.771-.55 3.273-2.26 6.439-4.67 9.487-7.225l.025-.022c-.602-9.494-4.043-25.408-9.299-30.514-6.696-6.505-43.483-22.432-44.413-21.924-.93.507.758 29.736-25.412 30.151-26.17.415-27.023-29.148-28.213-29.599z" fill="#11467f"/><path d="M237.548 159.95c-5.377-4.001-34.59-12.358-30.44-19.347 4.925-8.296 35.1 16.33 35.063 16.393zm7.068-3.155c-1.905-8.533-24.77-21.426-17.794-27.743 7.819-7.079 24.173 25.06 22.673 26.213zm7.654-1.53c2.69-.255-8.07-30.524 3.06-30.709 11.874-.197.459 30.6 4.018 30.996zm9.948.191s14.573-33.796 23.247-26.021c7.105 6.37-17.363 18.723-17.698 27.647zm7.271 2.296c-.128-.256 30.86-25.452 35.587-17.124 4.276 7.533-32.828 18.15-31.856 19.516z" fill="#092644"/><path d="M256.274 278.602c8.866.154 19.872-4.91 31.568-31.531 16.615-37.82 8.159-81.435-31.522-81.542-40.964.704-47.891 52.133-32.562 82.284 13.023 25.616 23.65 30.635 32.516 30.789z" fill="#facbac"/><path d="M231.348 165.385s4.87-11.5 24.081-11.365c19.212.135 25.57 11.364 25.57 11.364z" fill="#f9af3b"/><path d="M217.142 231.136s.835-37.159 16.393-42.57c15.559-5.412 21.288 3.336 21.288 3.336s7.077-8.547 21.418-3.541c14.34 5.006 16.664 42.91 16.664 42.91s.255 3.15 2.94-.195c6.377-7.943 7.884-26.989 5.802-32.553 1.468-8.999-3.725-20.268-9.73-23.89-3.589-7.18-8.775-11.78-16.504-11.31-8.477-5.211-19.738-2.319-20.254-1.862-.63-.775-8.902-3.364-17.728 1.324-8.945 1.916-13.931 6.64-17.297 12.174-7.253 5.552-11.776 15.099-9.799 23.683-1.98 6.408-2.317 23.576 4.36 31.948 1.437 1.803 1.819-.912 2.447.546z" fill="#0d3662"/><path d="M272.256 161.781c-.171.68-.94 3.788-.854 5.25.096 1.627 1.149 4.21.67 5.74-.478 1.531-5.166 8.036-5.166 8.036s6.887-5.356 7.748-6.791c.861-1.435-.095-3.732 0-5.454.082-1.48 2.713-4.366 3.487-5.187a16.73 16.73 0 00-2.727-.053 18.807 18.807 0 00-3.158-1.54zm18.328 10.438c-.677.728-1.988 2.263-2.059 3.326-.095 1.435.192 2.776-.191 3.732-.383.957-2.87 4.784-2.87 4.784s4.019-2.298 4.88-3.446c.86-1.148.383-1.72.861-2.678.345-.69 1.736-1.539 2.494-1.966-.583-.511-1.175-.973-1.781-1.338a33.297 33.297 0 00-1.334-2.414zm11.306 22.721c-.406 1.154-1.314 3.57-2.171 4.712-1.148 1.531-4.88 5.74-4.88 5.74s3.827-2.39 4.688-2.964c.743-.495 2.078-2.121 2.483-2.62a9.724 9.724 0 00-.364-1.285 20.21 20.21 0 00.245-3.584zm-43.622-34.26c-1.743.292-2.954.643-3.11.78-.112-.137-.537-.335-1.094-.536.054.882.213 3.598.213 5.15 0 1.818 2.297 9.47 2.297 9.47s1.149-7.556 1.436-9.374c.264-1.673.26-4.936.258-5.49zm-19.18 1.31a22.32 22.32 0 00-1.656.795c-1.077.23-2.095.504-3.06.813.256.303 3.26 3.876 3.26 5.252 0 1.435-.573 3.826.192 5.548.766 1.722 7.27 5.547 7.27 5.547s-4.305-4.495-4.688-6.6c-.382-2.104.479-5.262.479-6.6 0-1.184-1.444-4.066-1.797-4.755zm-17.184 10.365a31.084 31.084 0 00-1.77 2.604c-.607.465-1.19.968-1.757 1.486.607.213 2.553.916 2.8 1.493.288.67-.381 1.434 1.245 3.06 1.626 1.626 5.166 3.445 5.166 3.445s-2.297-1.819-3.063-4.115c-.765-2.296-.25-4.746-1.015-5.99a10.525 10.525 0 00-1.606-1.983zm-12.017 22.149c.002 1.39.135 2.777.449 4.139a21.46 21.46 0 00-.522 2.189c2.268 2.263 5.222 3.335 7.504 4.328-1.603-1.076-6.393-8.28-7.431-10.656zm7.431 10.656c.128.086.237.135.32.137-.098-.044-.218-.092-.32-.137z" fill="#092644"/><path d="M215.525 228.34c2.668-.097 5.838 2.579 6.322 4.605l1.88 14.301c-2.16 5.157-6 4.591-9.937-5.432-.906-2.305-2.331-4.718-2.014-8.288.333-3.758 1.924-5.12 3.75-5.187z" fill="#facbac"/><circle cx="237.728" cy="222.891" r="13.479" fill="#ded0da" stroke="#0b2d52" stroke-width="1.905" stroke-linecap="round"/><circle r="13.479" cy="222.891" cx="271.728" fill="#ded0da" stroke="#0b2d52" stroke-width="1.905" stroke-linecap="round"/><path d="M251.79 222.317l6.889.095" fill="none" stroke="#0b2d52" stroke-width="2.135"/><path d="M295.931 228.34c-2.668-.097-5.837 2.579-6.32 4.605l-1.88 14.301c2.158 5.157 5.998 4.591 9.936-5.432.906-2.305 2.33-4.718 2.014-8.288-.333-3.758-1.924-5.12-3.75-5.187z" fill="#facbac"/><circle cx="291.137" cy="247.68" r="1.82" fill="#0d3662"/></g></svg>