<svg xmlns="http://www.w3.org/2000/svg" xmlns:xlink="http://www.w3.org/1999/xlink" width="257.565" height="257.565"><defs><linearGradient id="c"><stop offset="0" stop-color="#1b70ca"/><stop offset="1" stop-color="#175fad"/></linearGradient><linearGradient id="b"><stop offset="0" stop-color="#15569d"/><stop offset="1" stop-color="#0c325b"/></linearGradient><linearGradient id="a"><stop offset="0" stop-color="#facbac"/><stop offset="1" stop-color="#efb692"/></linearGradient><linearGradient xlink:href="#a" id="d" x1="256.241" y1="303.111" x2="257.053" y2="277.135" gradientUnits="userSpaceOnUse"/><linearGradient xlink:href="#b" id="e" x1="129.722" y1="7.879" x2="129.913" y2="59.729" gradientUnits="userSpaceOnUse"/><linearGradient xlink:href="#c" id="f" x1="257.009" y1="182.954" x2="257.009" y2="148.514" gradientUnits="userSpaceOnUse"/></defs><g transform="translate(-125.565 -111.553)"><path d="M229.125 286.098c-.87-.33-22.426 8.91-36.037 16.516-3.236 1.856-5.823 3.55-7.168 4.855-5.405 9.653-9.446 33.987-9.932 60.522l80.553.242 80.555-.242c-.486-26.535-4.527-50.87-9.932-60.522-1.35-1.312-3.958-3.016-7.217-4.883-13.613-7.6-35.12-16.817-35.99-16.488-1.19.451-26.248 59.508-26.734 59.487l-.682-1.557-.68 1.557c-.485.021-25.546-59.036-26.736-59.487z" fill="#11467f"/><path d="M239.737 267.48s-2.105 9.758-5.357 14.54c-3.253 4.784-9.184 5.74-9.184 5.74l30.665 57.824 34.387-56.484s-9.184-2.487-13.776-8.418c-4.592-5.932-4.783-13.01-4.783-13.01z" fill="url(#d)"/><path d="M255.69 349.993s-26.375-53.375-24.5-52.875 50.875.125 50.875.125z" fill="#c1c1c1"/><path d="M237.548 159.95c-5.377-4.001-34.59-12.358-30.44-19.347 4.925-8.296 35.1 16.33 35.063 16.393zm7.068-3.155c-1.905-8.533-24.77-21.426-17.794-27.743 7.819-7.079 24.173 25.06 22.673 26.213zm7.654-1.53c2.69-.255-8.07-30.524 3.06-30.709 11.874-.197.459 30.6 4.018 30.996zm9.948.191s14.573-33.796 23.247-26.021c7.105 6.37-17.363 18.723-17.698 27.647zm7.271 2.296c-.128-.256 30.86-25.452 35.587-17.124 4.276 7.533-32.828 18.15-31.856 19.516z" fill="#092644"/><path d="M128.51 5.377L52.928 34.61c-4.164 1.62-4.188 3.214.076 4.912l37.272 14.415 76.442 1.335 40.725-15.75c4.27-1.7 4.24-3.297.063-4.917l-.018-.008-75.349-29.14c-1.003-.431-2.665-.441-3.629-.079z" transform="translate(125.565 111.553)" fill="url(#e)"/><path d="M256.274 278.602c8.866.154 19.872-4.91 31.568-31.531 16.615-37.82 8.159-81.435-31.522-81.542-40.964.704-47.891 52.133-32.562 82.284 13.023 25.616 23.65 30.635 32.516 30.789z" fill="#facbac"/><path d="M231.348 165.385s4.87-11.5 24.081-11.365c19.212.135 25.57 11.364 25.57 11.364z" fill="#f9af3b"/><path d="M217.142 231.136s.835-37.159 16.393-42.57c15.559-5.412 21.288 3.336 21.288 3.336s7.077-8.547 21.418-3.541c14.34 5.006 16.664 42.91 16.664 42.91s.255 3.15 2.94-.195c6.377-7.943 7.884-26.989 5.802-32.553 1.468-8.999-3.725-20.268-9.73-23.89-3.589-7.18-8.775-11.78-16.504-11.31-8.477-5.211-19.738-2.319-20.254-1.862-.63-.775-8.902-3.364-17.728 1.324-8.945 1.916-13.931 6.64-17.297 12.174-7.253 5.552-11.776 15.099-9.799 23.683-1.98 6.408-2.317 23.576 4.36 31.948 1.437 1.803 1.819-.912 2.447.546z" fill="#0d3662"/><path d="M215.525 228.34c2.668-.097 5.838 2.579 6.322 4.605l1.88 14.301c-2.16 5.157-6 4.591-9.937-5.432-.906-2.305-2.331-4.718-2.014-8.288.333-3.758 1.924-5.12 3.75-5.187zm80.406 0c-2.668-.097-5.837 2.579-6.32 4.605l-1.88 14.301c2.158 5.157 5.998 4.591 9.936-5.432.906-2.305 2.33-4.718 2.014-8.288-.333-3.758-1.924-5.12-3.75-5.187z" fill="#facbac"/><circle cx="291.137" cy="247.68" r="1.82" fill="#0d3662"/><path d="M272.256 161.781c-.171.68-.94 3.788-.854 5.25.096 1.627 1.149 4.21.67 5.74-.478 1.531-5.166 8.036-5.166 8.036s6.887-5.356 7.748-6.791c.861-1.435-.095-3.732 0-5.454.082-1.48 2.713-4.366 3.487-5.187a16.73 16.73 0 00-2.727-.053 18.807 18.807 0 00-3.158-1.54zm18.328 10.438c-.677.728-1.988 2.263-2.059 3.326-.095 1.435.192 2.776-.191 3.732-.383.957-2.87 4.784-2.87 4.784s4.019-2.298 4.88-3.446c.86-1.148.383-1.72.861-2.678.345-.69 1.736-1.539 2.494-1.966-.583-.511-1.175-.973-1.781-1.338a33.297 33.297 0 00-1.334-2.414zm11.306 22.721c-.406 1.154-1.314 3.57-2.171 4.712-1.148 1.531-4.88 5.74-4.88 5.74s3.827-2.39 4.688-2.964c.743-.495 2.078-2.121 2.483-2.62a9.724 9.724 0 00-.364-1.285 20.21 20.21 0 00.245-3.584zm-43.622-34.26c-1.743.292-2.954.643-3.11.78-.112-.137-.537-.335-1.094-.536.054.882.213 3.598.213 5.15 0 1.818 2.297 9.47 2.297 9.47s1.149-7.556 1.436-9.374c.264-1.673.26-4.936.258-5.49zm-19.18 1.31a22.32 22.32 0 00-1.656.795c-1.077.23-2.095.504-3.06.813.256.303 3.26 3.876 3.26 5.252 0 1.435-.573 3.826.192 5.548.766 1.722 7.27 5.547 7.27 5.547s-4.305-4.495-4.688-6.6c-.382-2.104.479-5.262.479-6.6 0-1.184-1.444-4.066-1.797-4.755zm-17.184 10.365a31.084 31.084 0 00-1.77 2.604c-.607.465-1.19.968-1.757 1.486.607.213 2.553.916 2.8 1.493.288.67-.381 1.434 1.245 3.06 1.626 1.626 5.166 3.445 5.166 3.445s-2.297-1.819-3.063-4.115c-.765-2.296-.25-4.746-1.015-5.99a10.525 10.525 0 00-1.606-1.983zm-12.017 22.149c.002 1.39.135 2.777.449 4.139a21.46 21.46 0 00-.522 2.189c2.268 2.263 5.222 3.335 7.504 4.328-1.603-1.076-6.393-8.28-7.431-10.656zm7.431 10.656c.128.086.237.135.32.137-.098-.044-.218-.092-.32-.137z" fill="#092644"/><circle cx="237.728" cy="222.891" r="13.479" fill="#ded0da" stroke="#0b2d52" stroke-width="1.905" stroke-linecap="round"/><circle r="13.479" cy="222.891" cx="271.728" fill="#ded0da" stroke="#0b2d52" stroke-width="1.905" stroke-linecap="round"/><path d="M251.79 222.317l6.889.095" fill="none" stroke="#0b2d52" stroke-width="2.135"/><path d="M255.917 144.65c-13.564.05-26.755 1.942-39.656 5.27-2.877.743-4.481 1.048-4.516 4.713v31.03c14.317-4.939 29.047-7.264 44.172-7.104 15.126-.16 29.855 2.165 44.172 7.104v-31.03c-.034-3.665-1.636-3.97-4.514-4.714-12.901-3.327-26.094-5.218-39.658-5.27z" fill="url(#f)"/><path d="M313.484 158.625v-20.043" fill="#593686"/><path d="M316.8 140.071v47.238h-3.316v-48.727" fill="#1d76d7"/><path d="M317.948 140.306v16.592" fill="#593686"/><path d="M314.695 188.837s-5.166 6.697-3.731 8.945c1.435 2.248 5.692 3.348 7.318.765 1.626-2.583-2.535-9.853-2.535-9.853z" fill="#1d76d7"/><circle cx="315.156" cy="188.407" r="2.774" fill="#0d3662"/><path d="M255.928 297.463c-1.961.058-3.209.104-4.545.159-.237.587-2.092 7.326-2.092 7.326l5.422 4.408-7.781 29.691c.047.067 6.877 9.849 8.996 12.559 2.118-2.71 8.951-12.492 8.998-12.559l-7.781-29.691 5.422-4.408s-1.855-6.739-2.092-7.326c-1.337-.055-2.585-.1-4.547-.159z" fill="#11467f"/><path d="M229.126 286.072l26.351 10.98-9.24 14.126-19.745-6.05zm53.587-.461l-27.236 11.44 9.24 14.127 19.746-6.05z" fill="#f5fff5"/><path d="M229.126 286.097l26.735 67.425s-32.335-30.132-31.953-34.532c.383-4.401 6.362-7.94 6.314-8.61-.05-.716-11.101-4.227-11.288-4.975-.53-2.12 1.367-20 10.192-19.308zm53.587-.486l-26.852 67.911s32.334-30.132 31.952-34.532c-.383-4.401-6.362-7.94-6.314-8.61.051-.716 11.102-4.227 11.288-4.975.53-2.12-1.25-20.487-10.074-19.794z" fill="#0b3056"/></g></svg>