<svg xmlns="http://www.w3.org/2000/svg" width="504.874" height="504.874" viewBox="0 0 133.581 133.581"><defs><clipPath clipPathUnits="userSpaceOnUse" id="a"><circle cx="122.543" cy="71.741" r="66.791" fill="none" stroke="#000" stroke-width=".6" stroke-linecap="round" stroke-linejoin="round"/></clipPath></defs><g clip-path="url(#a)" transform="translate(-55.752 -4.95)"><path fill="#11467f" d="M-33.337-21.775h358.775v240.242H-33.337z"/><g transform="translate(0 -1.587)"><path d="M89.193 90.63h-9.571v34.192h9.57z" fill="#f9af3b"/><path d="M89.184 90.639v34.175h44.097V90.639z" fill="#ededed"/><path d="M94.48 95.232v25.478h32.875V95.232z" fill="#f8a118"/><circle cx="84.468" cy="107.604" r="2.879" fill="#f9e0e6"/><path fill="#f9e0e6" d="M81.831 92.963h5.101v3.192h-5.101zm0 5.11h5.101v3.192h-5.101zm0 16.019h5.101v3.192h-5.101zm0 5.111h5.101v3.192h-5.101z"/><circle r=".951" cy="107.604" cx="84.468" fill="#815004"/></g><path fill="#fff" d="M113.96 63.204h5.556v16.933h-5.556z"/><path d="M73.499 16.505v51.737h86.43V16.505z" fill="#ededed"/><path d="M79.552 22.136v41.216h73.088V22.136z" fill="#f8a118"/><path d="M132.28 81.197h-31.22c0-4.003 31.22-4.212 31.22 0z" fill="#fff"/><path d="M152.25 74.062l20.755-.017c8.502 0 8.622.036 8.622 8.258l.008 26.73c0 5.902-.02 5.9-6.52 5.9h-22.864z" fill="#f8a118"/><path d="M153.856 74.062v40.87h.781v-40.87z" fill="#b16f05"/><path d="M152.25 97.575v6.43h29.377v-6.43z" fill="#fff9f0"/><path d="M143.107 77.04c-.202.77-.435 1.538-.784 2.306h2.066c-.335-.781-.522-1.542-.729-2.305z" fill="#ededed"/><path d="M143.107 77.04h.553c-.087-.318-.23-.646-.305-.964-.07.322-.163.643-.248.965z" fill="#e68f07"/><path d="M143.804 79.346v36.552h.585V79.346z" fill="#b87711"/><path d="M142.326 115.898h1.478V79.346h-1.478z" fill="#f9af3b"/></g></svg>