<svg xmlns="http://www.w3.org/2000/svg" width="300" height="300" viewBox="0 0 79.375 79.375"><defs><clipPath clipPathUnits="userSpaceOnUse" id="a"><circle cx="107.156" cy="138.439" r="39.688" fill="none" stroke="#be1a1a" stroke-width=".3" stroke-linecap="round"/></clipPath></defs><g clip-path="url(#a)" transform="translate(-67.469 -98.751)"><path fill="#11467f" d="M11.339 72.482h180.295v154.97H11.339z"/><g fill="none" stroke-linecap="round"><path d="M104.342 105.539v52.32" stroke="#fafafa" stroke-width=".697"/><path d="M107.439 107.145h5.192" stroke="#2e85e3" stroke-width=".877"/><path d="M107.439 107.145h5.192" stroke="#d4e6f9" stroke-width=".877"/><path d="M115.015 107.145h7.744m-15.204 2.728h9.763m2.63 0h18.28" stroke="#2e85e3" stroke-width=".877"/><path d="M107.417 112.602h6.75" stroke="#85b7ee" stroke-width=".877"/><path d="M110.843 115.33h4.08m2.864 0h30.428m-37.251 2.729h6.75m3.32 0h27.645" stroke="#2e85e3" stroke-width=".877"/><path d="M115.74 120.787h9.764" stroke="#74aeec" stroke-width=".877"/><path d="M128.133 120.787h18.28m-30.81 2.729h6.75m2.879 0h10.614" stroke="#2e85e3" stroke-width=".877"/><path d="M115.74 126.244h9.764" stroke="#74aeec" stroke-width=".877"/><path d="M128.133 126.244h18.28m-35.573 2.729h4.857" stroke="#2e85e3" stroke-width=".877"/><path d="M151.225 115.33h4.08" stroke="#d4e6f9" stroke-width=".877"/><path d="M118.673 128.973h19.555" stroke="#2e85e3" stroke-width=".877"/><path d="M107.417 131.701h6.75" stroke="#85b7ee" stroke-width=".877"/><path d="M110.843 134.43h4.08m2.74 0h21.906m-28.605 2.728h6.75m3.051 0h13.026" stroke="#2e85e3" stroke-width=".877"/><path d="M115.74 139.886h9.764" stroke="#74aeec" stroke-width=".877"/><path d="M128.133 139.886h18.28m-30.81 2.729h6.75m2.879 0h10.614" stroke="#2e85e3" stroke-width=".877"/><path d="M115.74 145.343h9.764" stroke="#74aeec" stroke-width=".877"/><path d="M128.133 145.343h18.28m-35.573 2.729h4.857m2.987 0h10.614" stroke="#2e85e3" stroke-width=".877"/><path d="M136.752 137.158h6.48" stroke="#d4e6f9" stroke-width=".877"/><path d="M107.439 150.8h5.192m-5.192 0h5.192m2.384 0h7.744m-15.204 2.729h9.763m2.376 0h7.861" stroke="#2e85e3" stroke-width=".877"/><path d="M107.417 156.257h6.75" stroke="#85b7ee" stroke-width=".877"/><path d="M100.678 107.145h1.311m-1.311 2.728h1.311m-1.311 2.729h1.311m-1.311 2.728h1.311m-1.311 2.729h1.311m-1.311 2.728h1.311m-1.311 2.729h1.311m-1.311 2.728h1.311m-1.311 2.729h1.311m-1.311 2.728h1.311m-1.311 2.729h1.311m-1.311 2.728h1.311m-1.311 2.728h1.311m-1.311 2.729h1.311m-1.311 2.728h1.311m-1.311 2.729h1.311m-1.311 2.728h1.311m-1.311 2.729h1.311m-1.311 2.728h1.311" stroke="#fafafa" stroke-width=".723"/></g><path fill="#fff" d="M89.047 156.162h3.608v10.997h-3.608z"/><path d="M62.77 125.833v33.6h56.13v-33.6z" fill="#ededed"/><path d="M66.7 129.49v26.767h47.467V129.49z" fill="#2e85e3"/><path d="M100.945 167.846H80.669c0-2.6 20.276-2.735 20.276 0z" fill="#fff"/></g></svg>