<svg xmlns="http://www.w3.org/2000/svg" width="94.369" height="94.17"><path d="M0 0v94.17h94.37V0zm48.18 8.635c21.539 0 39 17.46 39 39a39 39 0 01-13.926 29.818l-.008.008v-.002l.008-.006c-.158-2.699-.554-5.703-1.883-7.873-.292-.594-.607-1.107-.955-1.445-3.193-3.647-12.742-4.805-15.48-8.18-.692-.844-.95-1.832-1.213-2.81 1.47-1.426 3.025-3.715 4.62-7.315.256.566.583.876.954.883.612.075 1.355-.703 2.111-2.627.277-.704.71-1.441.613-2.531-.066-.754-.303-1.178-.613-1.395.821-1.317 1.206-3.125 1.322-4.844.242-1.877.198-3.635-.107-4.449.448-2.748-1.137-6.19-2.97-7.297-.88-1.758-2.075-3.007-3.731-3.36a7.352 7.352 0 00-1.524-1.32c2.786-1.853 10.387-3.379 9.272-5.702-1.371-2.857-8.221 2.726-10.815 4.845-.16-.068-.34-.126-.515-.187.685-2.688 7.732-6.646 5.342-8.076-2.949-1.765-6.539 4.942-7.25 7.619-.298-.04-.612-.068-.94-.086-.207-3.535 1.842-8.992-.91-9.035-3.297-.052-1.09 6.459-.941 9.035-.328.018-.642.045-.94.086-2.584-3.374-3.717-9.963-6.75-7.557-2.182 1.732 3.583 5.414 4.842 8.014-.176.061-.357.119-.518.187-3.453-1.41-8.724-7.902-10.812-4.934-1.676 2.383 6.134 4.435 9.271 5.792a7.373 7.373 0 00-1.525 1.32c-1.656.352-2.85 1.6-3.729 3.36-1.833 1.105-3.419 4.548-2.97 7.296-.303.808-.35 2.547-.115 4.408.112 1.731.5 3.557 1.328 4.885-.31.218-.547.642-.614 1.395-.096 1.09.339 1.827.616 2.53.755 1.925 1.499 2.703 2.11 2.628.372-.007.699-.318.954-.883 1.596 3.6 3.15 5.89 4.621 7.315-.18 1.082-.682 1.977-1.213 2.81-2.738 3.375-12.287 4.533-15.48 8.18-.35.339-.668.854-.961 1.45-1.223 2.616-1.954 5.352-1.879 7.868 0 .227.015.45.041.668A39 39 0 019.18 47.635c0-21.54 17.46-39 39-39z" fill="#11467f"/></svg>