<svg xmlns="http://www.w3.org/2000/svg" xmlns:svg="http://www.w3.org/2000/svg" id="svg8" width="97.732" height="97.732" version="1.1" viewBox="0 0 25.858 25.858"><metadata id="metadata5"/><g id="layer1" transform="translate(-4.4100667,-3.8721151)"><path id="path836" fill="#11467f" fill-opacity="1" stroke="none" stroke-dasharray="none" stroke-linecap="round" stroke-miterlimit="4" stroke-opacity="1" stroke-width=".378" d="M 49.017578 11.320312 L 31.814453 59.320312 L 49.017578 59.320312 L 49.017578 11.320312 z" opacity="1" transform="matrix(0.26458333,0,0,0.26458333,4.4100667,3.8721151)"/><path id="path831" fill="#0c325b" fill-opacity="1" stroke="none" stroke-dasharray="none" stroke-linecap="round" stroke-miterlimit="4" stroke-opacity="1" stroke-width=".378" d="M 49.017578 11.320312 L 49.017578 59.320312 L 66.15625 59.320312 L 49.017578 11.320312 z" opacity="1" transform="matrix(0.26458333,0,0,0.26458333,4.4100667,3.8721151)"/><path id="path841" fill="#11467f" fill-opacity="1" stroke="none" stroke-dasharray="none" stroke-linecap="round" stroke-miterlimit="4" stroke-opacity="1" stroke-width=".378" d="M 49.017578 70.482422 L 27.873047 70.482422 L 18.287109 97.732422 L 49.017578 97.732422 L 49.017578 70.482422 z" opacity="1" transform="matrix(0.26458333,0,0,0.26458333,4.4100667,3.8721151)"/><path id="path829" fill="#0c325b" fill-opacity="1" stroke="none" stroke-dasharray="none" stroke-linecap="round" stroke-miterlimit="4" stroke-opacity="1" stroke-width=".378" d="M 49.017578 70.482422 L 49.017578 97.732422 L 79.748047 97.732422 L 70.160156 70.482422 L 49.017578 70.482422 z" opacity="1" transform="matrix(0.26458333,0,0,0.26458333,4.4100667,3.8721151)"/><path id="path827" fill="#0c325b" fill-opacity="1" stroke="none" stroke-dasharray="none" stroke-linecap="round" stroke-miterlimit="4" stroke-opacity="1" stroke-width=".378" d="m 74.695312,14.634766 35.574218,97.732424 h 4.13086 V 14.634766 Z" opacity="1" transform="scale(0.26458333)"/><path id="path825" fill="#11467f" fill-opacity="1" stroke="none" stroke-dasharray="none" stroke-linecap="round" stroke-miterlimit="4" stroke-opacity="1" stroke-width=".378" d="M 57.332031,14.634766 H 16.667969 v 97.732424 h 5.08789 z" opacity="1" transform="scale(0.26458333)"/><path id="rect815" fill="#fff" fill-opacity=".859" stroke="none" stroke-dasharray="none" stroke-linecap="round" stroke-miterlimit="4" stroke-opacity="1" stroke-width=".378" d="M 57.332031,14.634766 21.755859,112.36719 h 13.199219 l 9.585938,-27.250002 h 42.287109 l 9.587891,27.250002 H 110.26953 L 74.695312,14.634766 Z m 8.353516,11.320312 17.138672,48 H 48.482422 Z" opacity="1" transform="scale(0.26458333)"/></g></svg>