<svg xmlns="http://www.w3.org/2000/svg" width="94.369" height="94.17"><path d="M47.356-.054C21.224-.054.042 21.128.042 47.26a47.314 47.314 0 0017.88 36.986c-.105-3.644.94-7.547 2.23-10.355.355-.723.74-1.35 1.165-1.76 3.874-4.425 15.46-5.83 18.781-9.924.644-1.01 1.253-2.097 1.471-3.41-1.784-1.728-3.67-4.506-5.606-8.873-.31.685-.705 1.062-1.156 1.07-.741.092-1.646-.851-2.562-3.186-.336-.853-.862-1.749-.746-3.071.081-.914.368-1.428.744-1.692-1.004-1.611-1.475-3.826-1.611-5.926-.285-2.258-.228-4.368.14-5.348-.545-3.334 1.38-7.512 3.604-8.853 1.066-2.135 2.514-3.648 4.523-4.075a8.945 8.945 0 011.85-1.602c-3.805-1.646-13.28-4.134-11.247-7.026 2.533-3.6 8.928 4.275 13.117 5.986.195-.083.415-.154.628-.228-1.527-3.154-8.521-7.62-5.874-9.722 3.68-2.919 5.054 5.075 8.189 9.168.362-.05.742-.083 1.14-.104-.181-3.126-2.858-11.025 1.142-10.962 3.339.053.853 6.673 1.104 10.962.398.021.778.055 1.14.104.862-3.248 5.218-11.385 8.795-9.243 2.9 1.734-5.65 6.536-6.48 9.797.212.074.431.145.625.228 3.147-2.57 11.457-9.345 13.12-5.879 1.353 2.818-7.868 4.671-11.248 6.92a8.92 8.92 0 011.848 1.6c2.01.43 3.459 1.944 4.526 4.076 2.224 1.343 4.148 5.519 3.604 8.853.37.987.424 3.12.13 5.398-.14 2.085-.608 4.278-1.604 5.876.376.263.664.777.744 1.692.118 1.322-.408 2.217-.744 3.07-.917 2.335-1.819 3.279-2.561 3.188-.45-.009-.846-.385-1.156-1.071-1.935 4.367-3.823 7.143-5.607 8.873.32 1.187.632 2.386 1.472 3.41 3.322 4.095 14.907 5.499 18.78 9.924.423.41.805 1.032 1.16 1.753 1.612 2.633 2.092 6.277 2.283 9.551A47.314 47.314 0 0094.67 47.26c0-26.132-21.183-47.314-47.314-47.314z" fill="#11467f"/></svg>