<svg xmlns="http://www.w3.org/2000/svg" width="410" height="410" viewBox="0 0 108.479 108.479"><defs><clipPath clipPathUnits="userSpaceOnUse" id="a"><circle cx="113.242" cy="94.642" r="54.24" opacity=".604" fill="none" stroke="#000" stroke-width=".726" stroke-linecap="round"/></clipPath></defs><g clip-path="url(#a)" transform="translate(-59.002 -40.402)"><g stroke-linecap="round"><path fill="#11467f" d="M-33.337-21.775h358.775v240.242H-33.337z"/><path d="M97.6 88.748l-9.901.719.636 6.13a17.406 17.406 0 00-3.47 1.568L80.88 92.64l-7.267 7.814 4.42 4.1a17.406 17.406 0 00-1.221 3.338l-6.102.288.477 10.141 6.018-.6a17.406 17.406 0 001.688 3.573l-4.385 4.069 7.648 6.654 3.61-4.364a17.406 17.406 0 004.02 1.454l-.146 5.57 10.346-.05-.491-6.09a17.406 17.406 0 003.483-1.693l4.067 4.37 6.599-7.852-4.286-3.677a17.406 17.406 0 001.239-3.479l6.171-.235-.644-9.789-5.945.468a17.406 17.406 0 00-1.778-3.747l4.7-4.282-7.74-6.673-4.022 4.585a17.406 17.406 0 00-3.521-1.276zm-2.102 14.349a9.236 9.236 0 017.239 10.872 9.236 9.236 0 01-10.872 7.239 9.236 9.236 0 01-7.239-10.872 9.236 9.236 0 01.227-.896 9.236 9.236 0 0110.645-6.343z" fill="#c1dbf6" fill-opacity=".617"/><path d="M127.883 111.366l-7.707 2.305 1.578 4.739a14.107 14.107 0 00-2.47 1.85l-3.946-2.883-4.38 7.458 4.217 2.469a14.107 14.107 0 00-.38 2.855l-4.778 1.298 2.156 7.94 4.656-1.53a14.107 14.107 0 001.963 2.53l-2.756 3.989 7.218 3.923 2.091-4.086a14.107 14.107 0 003.436.446l.862 4.433 8.177-1.854-1.457-4.733a14.107 14.107 0 002.46-1.95l3.984 2.743 3.843-7.37-4.036-2.158a14.107 14.107 0 00.37-2.97l4.842-1.268-2.227-7.632-4.621 1.413a14.107 14.107 0 00-2.065-2.653l2.968-4.213-7.295-3.921-2.378 4.333a14.107 14.107 0 00-3.01-.392zm.855 11.722a7.485 7.485 0 017.634 7.332 7.485 7.485 0 01-7.332 7.635 7.485 7.485 0 01-7.635-7.333 7.485 7.485 0 01.023-.748 7.485 7.485 0 017.31-6.886zm24.689-69.834l-10.835 3.24 2.219 6.662a19.832 19.832 0 00-3.474 2.601l-5.547-4.053-6.157 10.486 5.928 3.47a19.832 19.832 0 00-.535 4.014L128.31 81.5l3.031 11.163 6.547-2.152a19.832 19.832 0 002.759 3.559l-3.875 5.607 10.149 5.515 2.94-5.744a19.832 19.832 0 004.83.626l1.21 6.233 11.497-2.607-2.048-6.653a19.832 19.832 0 003.457-2.743l5.602 3.858 5.404-10.362-5.675-3.034a19.832 19.832 0 00.52-4.175l6.808-1.783-3.13-10.73-6.499 1.987a19.832 19.832 0 00-2.902-3.73l4.173-5.922-10.256-5.514-3.344 6.092a19.832 19.832 0 00-4.23-.551zm1.202 16.48a10.523 10.523 0 0110.733 10.308 10.523 10.523 0 01-10.309 10.733 10.523 10.523 0 01-10.733-10.309 10.523 10.523 0 01.032-1.052 10.523 10.523 0 0110.277-9.68z" fill="#c1dbf6" fill-opacity=".617"/><path d="M134.522 62.707H68.748v28.899c0 5.586 1.603 8.018 6.655 8.018h53.007c4.44-.156 5.993-2.3 6.112-6.97z" fill="#fff"/><path d="M75.397 52.144c-4.861 0-6.53 2.143-6.65 7.038v3.525h65.775v-4.14c-.163-4.298-1.735-6.277-6.106-6.423zm2.49 3.455a1.672 1.672 0 011.672 1.672 1.672 1.672 0 01-1.672 1.672 1.672 1.672 0 01-1.672-1.672 1.672 1.672 0 011.672-1.672zm11.703 0a1.672 1.672 0 011.672 1.672 1.672 1.672 0 01-1.672 1.672 1.672 1.672 0 01-1.672-1.672A1.672 1.672 0 0189.59 55.6zm11.368 0a1.672 1.672 0 011.672 1.672 1.672 1.672 0 01-1.672 1.672 1.672 1.672 0 01-1.671-1.672 1.672 1.672 0 011.671-1.672zm11.703 0a1.672 1.672 0 011.672 1.672 1.672 1.672 0 01-1.672 1.672 1.672 1.672 0 01-1.671-1.672 1.672 1.672 0 011.671-1.672zm11.703 0a1.672 1.672 0 011.672 1.672 1.672 1.672 0 01-1.672 1.672 1.672 1.672 0 01-1.672-1.672 1.672 1.672 0 011.672-1.672z" fill="#ff3939"/><path fill="#1c6fff" fill-opacity=".572" d="M84.865 87.944h9.221v9.221h-9.221zM73.162 65.348h9.221v9.221h-9.221zm0 11.369h9.221v9.221h-9.221zm0 11.227h9.221v9.221h-9.221zm11.703-22.596h9.221v9.221h-9.221z"/><path fill="none" stroke="#4d87f6" stroke-width=".632" stroke-linejoin="round" stroke-opacity=".749" d="M84.865 76.717h9.221v9.221h-9.221z"/><path fill="#1c6fff" fill-opacity=".572" d="M96.568 65.348h9.221v9.221h-9.221zm0 11.369h9.221v9.221h-9.221zm0 11.227h9.221v9.221h-9.221zm11.702-22.596h9.221v9.221h-9.221zm0 11.369h9.221v9.221h-9.221zm0 11.227h9.221v9.221h-9.221zm11.703-22.596h9.221v9.221h-9.221zm0 11.369h9.221v9.221h-9.221zm0 11.227h9.221v9.221h-9.221z"/><path d="M77.887 57.187v-7.606m11.703 7.69v-7.607m11.368 7.607v-7.607m11.703 7.607v-7.607m11.703 7.607v-7.607" fill="none" stroke="#000" stroke-width="1.621"/><g transform="translate(2.209 43.694) scale(.62104)"><circle cx="207.294" cy="101.114" r="44.527" fill="#fff" stroke="#ff3939" stroke-width="5.865" stroke-linejoin="round"/><path d="M207.316 135.28v5.366m0-79.062v5.365" fill="none" stroke="#000" stroke-width="1.006"/><path d="M173.189 99.898h-5.366m78.96 0h-5.366" fill="none" stroke="#000" stroke-width="1.008"/><path d="M189.724 130.369l-2.68 4.642m39.496-68.409l-2.68 4.642m-46.637 46.028l-4.64 2.68m68.385-39.482l-4.64 2.678m-58.04-.008l-4.642-2.681m68.398 39.49l-4.653-2.687M190.776 71.25l-2.68-4.64m39.484 68.385l-2.68-4.64" fill="none" stroke="#000" stroke-width="1.008" stroke-opacity=".589"/><path d="M207.294 101.208l7.297-26.286m-7.297 26.286l15.81 9.822" fill="none" stroke="#ff3939" stroke-width="3"/><circle r="2.16" cy="101.114" cx="207.294"/><g stroke-linejoin="round"><path fill="#fd3d3e" stroke="#ff3939" stroke-width="3" d="M202.34 48.34h10.054v6.615H202.34z"/><path fill="#d11213" stroke="#d11213" stroke-width="3.139" d="M200.687 43.517h13.478v6.575h-13.478z"/></g><g stroke-linejoin="round"><path fill="#fd3d3e" stroke="#ff3939" stroke-width="1.839" d="M177.708 59.657l5.338-3.082 2.028 3.513-5.338 3.082z"/><path fill="#d11213" stroke="#d11213" stroke-width="1.924" d="M175.352 57.603l7.156-4.131 2.016 3.49-7.157 4.132z"/></g><g stroke-linejoin="round"><path fill="#fd3d3e" stroke="#ff3939" stroke-width="1.839" d="M236.274 59.478l-5.121-3.431-2.258 3.37 5.122 3.43z"/><path fill="#d11213" stroke="#d11213" stroke-width="1.924" d="M238.761 57.585l-6.865-4.599-2.243 3.349 6.865 4.6z"/></g></g></g></g></svg>